<svg width="36" height="40" viewBox="0 0 36 40" fill="none" xmlns="http://www.w3.org/2000/svg" xmlns:xlink="http://www.w3.org/1999/xlink">
<g opacity="0.4" style="isolation:isolate">
<path d="M17.937,22.222C24.134,22.222 29.157,17.248 29.157,11.111C29.157,4.975 24.134,0 17.937,0C11.74,0 6.717,4.975 6.717,11.111C6.717,17.248 11.74,22.222 17.937,22.222Z" fill="#8F7A3F"/>
</g>
<path d="M35.869,33.352L35.869,33.352C35.879,33.194 35.879,33.035 35.869,32.877C35.825,32.292 35.659,31.722 35.382,31.196C34.292,29.059 31.234,28.091 28.682,27.543C26.862,27.163 25.012,26.919 23.151,26.813L21.203,26.667L20.326,26.667L19.236,26.667L16.626,26.667L15.535,26.667L14.658,26.667L12.711,26.813C10.849,26.919 8.999,27.163 7.179,27.543C4.628,28.018 1.57,29.005 0.479,31.196C0.202,31.722 0.036,32.292 -0.008,32.877C-0.018,33.035 -0.018,33.194 -0.008,33.352L-0.008,33.352C-0.017,33.51 -0.017,33.668 -0.008,33.827C0.045,34.406 0.217,34.97 0.498,35.489C1.589,37.626 4.647,38.594 7.199,39.142C9.022,39.504 10.871,39.748 12.73,39.872L14.678,40L15.145,40L15.554,40L20.346,40L20.755,40L21.222,40L23.17,39.872C25.03,39.748 26.878,39.504 28.702,39.142C31.253,38.648 34.311,37.68 35.402,35.489C35.67,34.954 35.835,34.379 35.889,33.79C35.891,33.644 35.885,33.497 35.869,33.352Z" fill="#8F7A3F"/>
</svg>
