<svg width="60" height="60" viewBox="0 0 60 60" fill="none" xmlns="http://www.w3.org/2000/svg" xmlns:xlink="http://www.w3.org/1999/xlink">
<path d="M30.3,52.2C42.726,52.2 52.8,42.126 52.8,29.7C52.8,17.274 42.726,7.2 30.3,7.2C17.873,7.2 7.8,17.274 7.8,29.7C7.8,42.126 17.873,52.2 30.3,52.2Z" fill="#1D385C"/>
<path d="M32.35,30L39.517,22.85C39.83,22.536 40.007,22.11 40.007,21.667C40.007,21.223 39.83,20.797 39.517,20.483C39.203,20.169 38.777,19.993 38.333,19.993C37.889,19.993 37.464,20.169 37.15,20.483L30,27.65L22.85,20.483C22.536,20.169 22.11,19.993 21.667,19.993C21.223,19.993 20.797,20.169 20.483,20.483C20.169,20.797 19.993,21.223 19.993,21.667C19.993,22.11 20.169,22.536 20.483,22.85L27.65,30L20.483,37.15C20.327,37.305 20.203,37.489 20.118,37.692C20.034,37.895 19.99,38.113 19.99,38.333C19.99,38.553 20.034,38.771 20.118,38.974C20.203,39.177 20.327,39.362 20.483,39.517C20.638,39.673 20.823,39.797 21.026,39.881C21.229,39.966 21.447,40.01 21.667,40.01C21.887,40.01 22.104,39.966 22.308,39.881C22.511,39.797 22.695,39.673 22.85,39.517L30,32.35L37.15,39.517C37.305,39.673 37.489,39.797 37.692,39.881C37.895,39.966 38.113,40.01 38.333,40.01C38.553,40.01 38.771,39.966 38.974,39.881C39.177,39.797 39.362,39.673 39.517,39.517C39.673,39.362 39.797,39.177 39.881,38.974C39.966,38.771 40.01,38.553 40.01,38.333C40.01,38.113 39.966,37.895 39.881,37.692C39.797,37.489 39.673,37.305 39.517,37.15L32.35,30Z" fill="#FFFFFF" stroke="#FFFFFF" stroke-width="2" stroke-miterlimit="3.999327" stroke-linecap="round" stroke-linejoin="round"/>
</svg>
