<svg width="50" height="68" viewBox="0 0 50 68" fill="none" xmlns="http://www.w3.org/2000/svg" xmlns:xlink="http://www.w3.org/1999/xlink">
<path d="M25,0C11.399,0 0.333,10.169 0.333,22.667C0.333,26.419 1.354,30.139 3.294,33.438L23.651,67.27C23.922,67.721 24.438,68 25,68C25.561,68 26.078,67.721 26.349,67.27L46.712,33.427C48.646,30.139 49.666,26.419 49.666,22.667C49.666,10.169 38.601,0 25,0ZM25,34C18.199,34 12.666,28.916 12.666,22.667C12.666,16.418 18.199,11.333 25,11.333C31.8,11.333 37.333,16.418 37.333,22.667C37.333,28.916 31.8,34 25,34Z" fill="#1D385C"/>
</svg>
