<svg width="122" height="130" viewBox="0 0 122 130" fill="none" xmlns="http://www.w3.org/2000/svg" xmlns:xlink="http://www.w3.org/1999/xlink">
<g opacity="0.4" style="isolation:isolate">
<path d="M60.001,72.129C80.712,72.129 97.501,56.169 97.501,36.481C97.501,16.793 80.712,0.833 60.001,0.833C39.29,0.833 22.5,16.793 22.5,36.481C22.5,56.169 39.29,72.129 60.001,72.129Z" fill="#B49B58"/>
</g>
<path d="M119.935,107.836L119.935,107.836C119.969,107.329 119.969,106.82 119.935,106.313C119.787,104.437 119.234,102.606 118.307,100.921C114.662,94.065 104.442,90.959 95.914,89.201C89.83,87.982 83.648,87.199 77.426,86.857L70.917,86.389L67.987,86.389L64.342,86.389L55.619,86.389L51.973,86.389L49.044,86.389L42.534,86.857C36.312,87.199 30.131,87.982 24.046,89.201C15.519,90.725 5.298,93.889 1.653,100.921C0.727,102.606 0.174,104.437 0.025,106.313C-0.008,106.82 -0.008,107.329 0.025,107.836L0.025,107.836C-0.006,108.344 -0.006,108.852 0.025,109.36C0.202,111.219 0.777,113.03 1.718,114.692C5.363,121.548 15.584,124.654 24.111,126.412C30.207,127.574 36.384,128.357 42.599,128.756L49.109,129.166L50.671,129.166L52.038,129.166L68.052,129.166L69.419,129.166L70.982,129.166L77.491,128.756C83.706,128.357 89.883,127.574 95.979,126.412C104.507,124.83 114.727,121.724 118.373,114.692C119.27,112.977 119.821,111.132 120,109.242C120.008,108.773 119.987,108.303 119.935,107.836Z" fill="#1F375D"/>
</svg>
