<svg width="36" height="40" viewBox="0 0 36 40" fill="none" xmlns="http://www.w3.org/2000/svg" xmlns:xlink="http://www.w3.org/1999/xlink">
<g opacity="0.4" style="isolation:isolate">
<path d="M17.936,22.222C24.133,22.222 29.156,17.248 29.156,11.111C29.156,4.975 24.133,0 17.936,0C11.739,0 6.716,4.975 6.716,11.111C6.716,17.248 11.739,22.222 17.936,22.222Z" fill="#1D385C"/>
</g>
<path d="M35.869,33.352L35.869,33.352C35.879,33.194 35.879,33.035 35.869,32.877C35.824,32.292 35.659,31.722 35.382,31.196C34.291,29.059 31.233,28.091 28.681,27.543C26.861,27.163 25.011,26.919 23.15,26.813L21.202,26.667L20.326,26.667L19.235,26.667L16.625,26.667L15.534,26.667L14.658,26.667L12.71,26.813C10.849,26.919 8.999,27.163 7.179,27.543C4.627,28.018 1.569,29.005 0.478,31.196C0.201,31.722 0.036,32.292 -0.009,32.877C-0.019,33.035 -0.019,33.194 -0.009,33.352L-0.009,33.352C-0.018,33.51 -0.018,33.668 -0.009,33.827C0.044,34.406 0.216,34.97 0.498,35.489C1.589,37.626 4.647,38.594 7.198,39.142C9.022,39.504 10.87,39.748 12.73,39.872L14.677,40L15.145,40L15.554,40L20.345,40L20.754,40L21.222,40L23.169,39.872C25.029,39.748 26.877,39.504 28.701,39.142C31.252,38.648 34.31,37.68 35.401,35.489C35.669,34.954 35.834,34.379 35.888,33.79C35.891,33.644 35.884,33.497 35.869,33.352Z" fill="#1D385C"/>
</svg>
