<svg width="40" height="46" viewBox="0 0 40 46" fill="none" xmlns="http://www.w3.org/2000/svg" xmlns:xlink="http://www.w3.org/1999/xlink">
<g opacity="0.4" style="isolation:isolate">
<path d="M27.249,0.5L34.003,0.5C36.8,0.5 39.067,3.078 39.067,6.26L39.067,13.943C39.067,17.124 36.8,19.703 34.003,19.703L27.249,19.703C24.452,19.703 22.186,17.124 22.186,13.943L22.186,6.26C22.186,3.078 24.452,0.5 27.249,0.5Z" fill="#8F7A3F"/>
</g>
<g style="isolation:isolate">
<path d="M5.053,0.5L11.807,0.5C14.604,0.5 16.87,3.078 16.87,6.26L16.87,13.943C16.87,17.124 14.604,19.703 11.807,19.703L5.053,19.703C2.256,19.703 -0.011,17.124 -0.011,13.943L-0.011,6.26C-0.011,3.078 2.256,0.5 5.053,0.5Z" fill="#8F7A3F"/>
</g>
<g style="isolation:isolate">
<path d="M5.053,26.298L11.807,26.298C14.604,26.298 16.87,28.876 16.87,32.058L16.87,39.741C16.87,42.92 14.604,45.5 11.807,45.5L5.053,45.5C2.256,45.5 -0.011,42.92 -0.011,39.741L-0.011,32.058C-0.011,28.876 2.256,26.298 5.053,26.298Z" fill="#8F7A3F"/>
</g>
<g style="isolation:isolate">
<path d="M28.065,26.298L34.819,26.298C37.616,26.298 39.883,28.876 39.883,32.058L39.883,39.741C39.883,42.92 37.616,45.5 34.819,45.5L28.065,45.5C25.268,45.5 23.002,42.92 23.002,39.741L23.002,32.058C23.002,28.876 25.268,26.298 28.065,26.298Z" fill="#8F7A3F"/>
</g>
</svg>
