<svg width="36" height="46" viewBox="0 0 36 46" fill="none" xmlns="http://www.w3.org/2000/svg" xmlns:xlink="http://www.w3.org/1999/xlink">
<g opacity="0.4" style="isolation:isolate">
<path d="M26.296,0.25L9.578,0.25C3.514,0.25 -0.016,4.255 -0.016,11.118L-0.016,34.36C-0.016,41.335 3.514,45.25 9.578,45.25L26.296,45.25C32.457,45.25 35.888,41.335 35.888,34.36L35.888,11.118C35.888,4.255 32.457,0.25 26.296,0.25Z" fill="#1D385C"/>
</g>
<path d="M10.117,10.713L10.117,10.735C9.258,10.735 8.562,11.523 8.562,12.49C8.562,13.458 9.258,14.245 10.117,14.245L16.08,14.245C16.939,14.245 17.637,13.458 17.637,12.466C17.637,11.5 16.939,10.713 16.08,10.713L10.117,10.713ZM25.756,24.415L10.117,24.415C9.258,24.415 8.562,23.628 8.562,22.66C8.562,21.693 9.258,20.903 10.117,20.903L25.756,20.903C26.613,20.903 27.312,21.693 27.312,22.66C27.312,23.628 26.613,24.415 25.756,24.415ZM25.755,34.698L10.117,34.698C9.519,34.788 8.94,34.45 8.621,33.888C8.302,33.303 8.302,32.56 8.621,31.998C8.94,31.413 9.519,31.098 10.117,31.165L25.755,31.165C26.551,31.255 27.152,32.02 27.152,32.943C27.152,33.841 26.551,34.608 25.755,34.698Z" clip-rule="evenodd" fill-rule="evenodd" fill="#1D385C"/>
</svg>
