<svg width="18" height="30" viewBox="0 0 18 30" fill="none" xmlns="http://www.w3.org/2000/svg" xmlns:xlink="http://www.w3.org/1999/xlink">
<path d="M0,14.992C0,15.285 0.053,15.556 0.159,15.805C0.277,16.053 0.454,16.29 0.69,16.516L14.464,29.424C14.864,29.808 15.348,30 15.914,30C16.303,30 16.65,29.91 16.957,29.729C17.275,29.56 17.528,29.322 17.717,29.018C17.906,28.724 18,28.396 18,28.035C18,27.493 17.782,27.013 17.346,26.595L4.933,14.992L17.346,3.388C17.782,2.97 18,2.496 18,1.965C18,1.592 17.906,1.259 17.717,0.966C17.528,0.672 17.275,0.44 16.957,0.271C16.65,0.09 16.303,0 15.914,0C15.348,0 14.864,0.186 14.464,0.559L0.69,13.467C0.454,13.693 0.277,13.93 0.159,14.178C0.053,14.427 0,14.698 0,14.992Z" fill="#1D385C"/>
</svg>
