<svg width="68" height="42" viewBox="0 0 68 42" fill="none" xmlns="http://www.w3.org/2000/svg" xmlns:xlink="http://www.w3.org/1999/xlink">
<path d="M45.899,12.411C45.19,11.983 44.268,12.212 43.84,12.921C43.413,13.631 43.641,14.553 44.351,14.98L45.899,12.411ZM56.017,20.258L56.791,21.543C57.242,21.271 57.517,20.784 57.517,20.258C57.517,19.732 57.242,19.245 56.791,18.973L56.017,20.258ZM44.351,25.536C43.641,25.963 43.413,26.885 43.84,27.595C44.268,28.304 45.19,28.533 45.899,28.105L44.351,25.536ZM44.351,14.98L55.243,21.543L56.791,18.973L45.899,12.411L44.351,14.98ZM55.243,18.973L44.351,25.536L45.899,28.105L56.791,21.543L55.243,18.973Z" fill="#1D385C"/>
<line x1="26.971" y1="18.758" x2="56.016" y2="18.758" stroke="#1D385C" stroke-width="1.5" stroke-miterlimit="3.999327" stroke-linecap="round" stroke-linejoin="round"/>
<path d="M26.971,35.508C27.799,35.508 28.471,34.836 28.471,34.008C28.471,33.18 27.799,32.508 26.971,32.508L26.971,35.508ZM12.448,6.508L12.448,8.008L12.448,6.508ZM26.971,8.008C27.799,8.008 28.471,7.336 28.471,6.508C28.471,5.68 27.799,5.008 26.971,5.008L26.971,8.008ZM26.971,32.508L12.448,32.508L12.448,35.508L26.971,35.508L26.971,32.508ZM12.448,32.508C12.113,32.508 11.865,32.424 11.755,32.357L10.207,34.927C10.874,35.329 11.682,35.508 12.448,35.508L12.448,32.508ZM11.755,32.357C11.706,32.327 11.726,32.327 11.767,32.387C11.812,32.452 11.873,32.581 11.873,32.758L8.873,32.758C8.873,33.802 9.553,34.533 10.207,34.927L11.755,32.357ZM11.873,32.758L11.873,7.758L8.873,7.758L8.873,32.758L11.873,32.758ZM11.873,7.758C11.873,7.935 11.812,8.064 11.767,8.129C11.726,8.189 11.706,8.189 11.755,8.159L10.207,5.589C9.553,5.983 8.873,6.714 8.873,7.758L11.873,7.758ZM11.755,8.159C11.865,8.092 12.113,8.008 12.448,8.008L12.448,5.008C11.682,5.008 10.874,5.187 10.207,5.589L11.755,8.159ZM12.448,8.008L26.971,8.008L26.971,5.008L12.448,5.008L12.448,8.008Z" fill="#1D385C"/>
</svg>
