<svg width="34" height="26" viewBox="0 0 34 26" fill="none" xmlns="http://www.w3.org/2000/svg" xmlns:xlink="http://www.w3.org/1999/xlink">
<path d="M17.252,0C24.758,0.108 30.916,6.965 34,12.865C34,12.865 32.915,15.121 31.897,16.566C31.404,17.265 30.886,17.945 30.341,18.604C29.953,19.073 29.552,19.529 29.136,19.973C25.419,23.94 20.08,26.899 14.442,25.75C8.179,24.473 3.071,19.021 0,13.157C0,13.157 1.09,10.898 2.114,9.455C2.572,8.808 3.054,8.179 3.558,7.568C3.944,7.1 4.344,6.643 4.758,6.2C8.042,2.683 12.257,-0.024 17.252,0L17.252,0ZM17.226,2.885C13.045,2.869 9.568,5.241 6.817,8.186C6.443,8.586 6.083,8.999 5.733,9.421C5.274,9.978 4.835,10.553 4.417,11.142C3.999,11.731 3.571,12.474 3.231,13.105C5.938,17.727 10.002,21.902 15.001,22.921C19.66,23.871 24.008,21.262 27.08,17.984C27.455,17.583 27.818,17.17 28.169,16.747C28.666,16.146 29.138,15.525 29.588,14.887C30.004,14.296 30.432,13.552 30.771,12.92C27.961,8.142 23.154,2.979 17.226,2.885Z" clip-rule="evenodd" fill-rule="evenodd" fill="#8F7A3F"/>
<path d="M16.999,7.229C20.14,7.229 22.691,9.82 22.691,13.011C22.691,16.202 20.14,18.793 16.999,18.793C13.859,18.793 11.309,16.202 11.309,13.011C11.309,9.82 13.859,7.229 16.999,7.229Z" clip-rule="evenodd" fill-rule="evenodd" fill="#8F7A3F"/>
</svg>
