<svg width="58" height="56" viewBox="0 0 58 56" fill="none" xmlns="http://www.w3.org/2000/svg" xmlns:xlink="http://www.w3.org/1999/xlink">
<path d="M30.203,46.145L43.985,54.895C45.762,56.016 47.949,54.348 47.43,52.297L43.438,36.602C43.33,36.167 43.347,35.71 43.487,35.284C43.628,34.858 43.885,34.481 44.231,34.195L56.59,23.887C58.203,22.547 57.383,19.84 55.278,19.703L39.145,18.664C38.705,18.639 38.281,18.485 37.927,18.223C37.572,17.961 37.302,17.601 37.149,17.188L31.133,2.039C30.974,1.601 30.684,1.223 30.302,0.956C29.921,0.689 29.466,0.545 29,0.545C28.534,0.545 28.08,0.689 27.698,0.956C27.317,1.223 27.027,1.601 26.867,2.039L20.852,17.188C20.698,17.601 20.428,17.961 20.074,18.223C19.719,18.485 19.296,18.639 18.856,18.664L2.723,19.703C0.617,19.84 -0.203,22.547 1.41,23.887L13.77,34.195C14.115,34.481 14.373,34.858 14.513,35.284C14.653,35.71 14.671,36.167 14.563,36.602L10.871,51.148C10.242,53.609 12.867,55.606 14.973,54.266L27.797,46.145C28.157,45.916 28.574,45.794 29,45.794C29.426,45.794 29.844,45.916 30.203,46.145L30.203,46.145Z" fill="#8F7A3F"/>
</svg>
