<svg width="50" height="50" viewBox="0 0 50 50" fill="none" xmlns="http://www.w3.org/2000/svg" xmlns:xlink="http://www.w3.org/1999/xlink">
<path d="M25,50C38.807,50 50,38.807 50,25C50,11.193 38.807,0 25,0C11.193,0 0,11.193 0,25C0,38.807 11.193,50 25,50Z" fill="#FFFFFF"/>
<path d="M27.002,26.562L33.309,20.27C33.585,19.994 33.741,19.619 33.741,19.229C33.741,18.838 33.585,18.463 33.309,18.187C33.033,17.911 32.658,17.756 32.268,17.756C31.877,17.756 31.503,17.911 31.226,18.187L24.934,24.494L18.642,18.187C18.365,17.911 17.991,17.756 17.6,17.756C17.21,17.756 16.835,17.911 16.559,18.187C16.283,18.463 16.128,18.838 16.128,19.229C16.128,19.619 16.283,19.994 16.559,20.27L22.866,26.562L16.559,32.855C16.421,32.991 16.312,33.153 16.238,33.332C16.163,33.511 16.125,33.703 16.125,33.896C16.125,34.09 16.163,34.281 16.238,34.46C16.312,34.639 16.421,34.801 16.559,34.938C16.695,35.075 16.857,35.184 17.036,35.259C17.215,35.333 17.407,35.371 17.6,35.371C17.794,35.371 17.986,35.333 18.164,35.259C18.343,35.184 18.505,35.075 18.642,34.938L24.934,28.63L31.226,34.938C31.363,35.075 31.525,35.184 31.704,35.259C31.882,35.333 32.074,35.371 32.268,35.371C32.461,35.371 32.653,35.333 32.832,35.259C33.011,35.184 33.173,35.075 33.309,34.938C33.447,34.801 33.556,34.639 33.63,34.46C33.705,34.281 33.743,34.09 33.743,33.896C33.743,33.703 33.705,33.511 33.63,33.332C33.556,33.153 33.447,32.991 33.309,32.855L27.002,26.562Z" fill="#1D385C" stroke="#1D385C" stroke-width="2" stroke-miterlimit="3.999327" stroke-linecap="round" stroke-linejoin="round"/>
</svg>
