<svg width="48" height="48" viewBox="0 0 48 48" fill="none" xmlns="http://www.w3.org/2000/svg" xmlns:xlink="http://www.w3.org/1999/xlink">
<path d="M34.2,20.68C34.2,27.307 28.827,32.68 22.2,32.68L22.2,36.68C31.037,36.68 38.2,29.517 38.2,20.68L34.2,20.68ZM22.2,32.68C15.573,32.68 10.2,27.307 10.2,20.68L6.2,20.68C6.2,29.517 13.363,36.68 22.2,36.68L22.2,32.68ZM10.2,20.68C10.2,14.053 15.573,8.68 22.2,8.68L22.2,4.68C13.363,4.68 6.2,11.843 6.2,20.68L10.2,20.68ZM22.2,8.68C28.827,8.68 34.2,14.053 34.2,20.68L38.2,20.68C38.2,11.843 31.037,4.68 22.2,4.68L22.2,8.68Z" fill="#FFFFFF"/>
<path d="M32.554,31.006C31.773,30.225 30.507,30.225 29.726,31.006C28.945,31.787 28.945,33.053 29.726,33.834L32.554,31.006ZM37.726,41.834C38.507,42.615 39.773,42.615 40.554,41.834C41.335,41.053 41.335,39.787 40.554,39.006L37.726,41.834ZM29.726,33.834L37.726,41.834L40.554,39.006L32.554,31.006L29.726,33.834Z" fill="#FFFFFF"/>
</svg>
