<svg width="60" height="58" viewBox="0 0 60 58" fill="none" xmlns="http://www.w3.org/2000/svg" xmlns:xlink="http://www.w3.org/1999/xlink">
<path d="M43.985,54.895L43.181,56.161L43.184,56.163L43.985,54.895ZM47.43,52.297L48.884,51.929L48.884,51.927L47.43,52.297ZM43.438,36.602L41.982,36.963L41.984,36.971L43.438,36.602ZM44.231,34.195L45.187,35.351L45.191,35.347L44.231,34.195ZM56.59,23.887L55.632,22.733L55.629,22.735L56.59,23.887ZM55.278,19.703L55.375,18.206L55.374,18.206L55.278,19.703ZM39.145,18.664L39.241,17.167L39.232,17.167L39.145,18.664ZM37.149,17.188L38.555,16.666C38.551,16.655 38.547,16.645 38.543,16.634L37.149,17.188ZM31.133,2.039L29.723,2.552C29.728,2.566 29.734,2.579 29.739,2.593L31.133,2.039ZM29,0.545L29,-0.955L29,0.545ZM26.867,2.039L28.262,2.593C28.267,2.579 28.272,2.566 28.277,2.552L26.867,2.039ZM20.852,17.188L19.458,16.634C19.453,16.645 19.449,16.655 19.445,16.666L20.852,17.188ZM18.856,18.664L18.769,17.167L18.759,17.167L18.856,18.664ZM2.723,19.703L2.626,18.206L2.626,18.206L2.723,19.703ZM1.41,23.887L2.371,22.735L2.369,22.733L1.41,23.887ZM13.77,34.195L12.809,35.347L12.814,35.351L13.77,34.195ZM14.563,36.602L16.017,36.971L16.019,36.963L14.563,36.602ZM10.871,51.148L12.325,51.52L12.325,51.517L10.871,51.148ZM14.973,54.266L14.17,52.998L14.168,53L14.973,54.266ZM27.797,46.145L28.6,47.412L28.602,47.41L27.797,46.145ZM29,45.794L29,44.294L29,45.794ZM29.399,47.411L43.181,56.161L44.789,53.628L31.007,44.878L29.399,47.411ZM43.184,56.163C46.199,58.065 49.71,55.187 48.884,51.929L45.976,52.665C46.076,53.059 45.927,53.39 45.663,53.589C45.405,53.784 45.093,53.82 44.785,53.626L43.184,56.163ZM48.884,51.927L44.891,36.232L41.984,36.971L45.976,52.667L48.884,51.927ZM44.894,36.24C44.854,36.08 44.86,35.911 44.912,35.754L42.063,34.815C41.834,35.509 41.806,36.253 41.982,36.963L44.894,36.24ZM44.912,35.754C44.964,35.596 45.059,35.457 45.187,35.351L43.275,33.039C42.712,33.505 42.291,34.121 42.063,34.815L44.912,35.754ZM45.191,35.347L57.551,25.039L55.629,22.735L43.27,33.043L45.191,35.347ZM57.548,25.041C60.147,22.883 58.909,18.436 55.375,18.206L55.18,21.2C55.532,21.223 55.788,21.439 55.895,21.787C56.005,22.142 55.915,22.497 55.632,22.733L57.548,25.041ZM55.374,18.206L39.241,17.167L39.048,20.161L55.181,21.2L55.374,18.206ZM39.232,17.167C39.083,17.158 38.939,17.106 38.819,17.017L37.035,19.429C37.624,19.864 38.327,20.119 39.058,20.162L39.232,17.167ZM38.819,17.017C38.699,16.928 38.607,16.806 38.555,16.666L35.742,17.709C35.997,18.396 36.446,18.993 37.035,19.429L38.819,17.017ZM38.543,16.634L32.527,1.486L29.739,2.593L35.755,17.741L38.543,16.634ZM32.543,1.526C32.278,0.799 31.796,0.171 31.163,-0.273L29.442,2.185C29.571,2.275 29.669,2.403 29.723,2.552L32.543,1.526ZM31.163,-0.273C30.529,-0.717 29.774,-0.955 29,-0.955L29,2.045C29.158,2.045 29.312,2.094 29.442,2.185L31.163,-0.273ZM29,-0.955C28.227,-0.955 27.472,-0.717 26.838,-0.273L28.559,2.185C28.688,2.094 28.842,2.045 29,2.045L29,-0.955ZM26.838,-0.273C26.204,0.171 25.722,0.799 25.458,1.526L28.277,2.552C28.331,2.403 28.429,2.275 28.559,2.185L26.838,-0.273ZM25.473,1.486L19.458,16.634L22.246,17.741L28.262,2.593L25.473,1.486ZM19.445,16.666C19.393,16.806 19.302,16.928 19.181,17.017L20.966,19.429C21.554,18.993 22.004,18.396 22.258,17.709L19.445,16.666ZM19.181,17.017C19.061,17.106 18.918,17.158 18.769,17.167L18.943,20.162C19.674,20.119 20.377,19.864 20.966,19.429L19.181,17.017ZM18.759,17.167L2.626,18.206L2.819,21.2L18.952,20.161L18.759,17.167ZM2.626,18.206C-0.908,18.436 -2.147,22.883 0.452,25.041L2.369,22.733C2.085,22.497 1.995,22.142 2.105,21.787C2.213,21.439 2.468,21.223 2.82,21.2L2.626,18.206ZM0.45,25.039L12.809,35.347L14.73,33.043L2.371,22.735L0.45,25.039ZM12.814,35.351C12.941,35.457 13.037,35.596 13.089,35.754L15.938,34.815C15.709,34.121 15.289,33.505 14.726,33.039L12.814,35.351ZM13.089,35.754C13.14,35.911 13.147,36.08 13.107,36.24L16.019,36.963C16.195,36.253 16.167,35.509 15.938,34.815L13.089,35.754ZM13.109,36.233L9.417,50.78L12.325,51.517L16.017,36.971L13.109,36.233ZM9.418,50.777C8.483,54.434 12.422,57.667 15.778,55.531L14.168,53C13.313,53.544 12.001,52.785 12.325,51.52L9.418,50.777ZM15.775,55.533L28.6,47.412L26.995,44.877L14.17,52.998L15.775,55.533ZM28.602,47.41C28.721,47.335 28.859,47.294 29,47.294L29,44.294C28.289,44.294 27.592,44.497 26.992,44.879L28.602,47.41ZM29,47.294C29.141,47.294 29.279,47.335 29.398,47.41L31.008,44.879C30.408,44.497 29.711,44.294 29,44.294L29,47.294Z" fill="#757575"/>
</svg>
